<svg width="203" height="179" viewBox="0 0 203 179" fill="none" xmlns="http://www.w3.org/2000/svg">
<path d="M8.57201 167L3.85301 141.572H9.74201L11.497 153.467C11.653 154.793 11.822 156.132 12.004 157.484C12.186 158.81 12.355 160.149 12.511 161.501H12.667C12.927 160.149 13.174 158.81 13.408 157.484C13.668 156.132 13.928 154.793 14.188 153.467L16.918 141.572H21.793L24.523 153.467C24.783 154.767 25.03 156.093 25.264 157.445C25.524 158.771 25.784 160.123 26.044 161.501H26.2C26.382 160.123 26.551 158.771 26.707 157.445C26.889 156.119 27.071 154.793 27.253 153.467L29.008 141.572H34.507L29.983 167H22.768L20.272 155.456C20.064 154.468 19.869 153.48 19.687 152.492C19.531 151.478 19.388 150.503 19.258 149.567H19.102C18.946 150.503 18.777 151.478 18.595 152.492C18.439 153.48 18.257 154.468 18.049 155.456L15.67 167H8.57201ZM42.7156 167V141.572H58.6276V146.408H48.4486V151.517H57.1066V156.314H48.4486V162.164H59.0176V167H42.7156ZM68.7618 167V141.572H77.4588C78.7848 141.572 80.0068 141.676 81.1248 141.884C82.2688 142.066 83.2568 142.404 84.0888 142.898C84.9468 143.392 85.6098 144.042 86.0778 144.848C86.5718 145.654 86.8188 146.668 86.8188 147.89C86.8188 148.462 86.7408 149.034 86.5848 149.606C86.4288 150.178 86.2078 150.711 85.9218 151.205C85.6358 151.699 85.2848 152.141 84.8688 152.531C84.4788 152.921 84.0238 153.207 83.5038 153.389V153.545C84.1538 153.701 84.7518 153.948 85.2978 154.286C85.8438 154.598 86.3248 155.001 86.7408 155.495C87.1568 155.989 87.4818 156.574 87.7158 157.25C87.9498 157.9 88.0668 158.654 88.0668 159.512C88.0668 160.812 87.8068 161.93 87.2868 162.866C86.7928 163.802 86.0908 164.582 85.1808 165.206C84.2968 165.804 83.2568 166.259 82.0608 166.571C80.8648 166.857 79.5778 167 78.1998 167H68.7618ZM74.4948 151.751H77.1858C78.5898 151.751 79.6038 151.478 80.2278 150.932C80.8778 150.386 81.2028 149.658 81.2028 148.748C81.2028 147.76 80.8778 147.058 80.2278 146.642C79.5778 146.226 78.5768 146.018 77.2248 146.018H74.4948V151.751ZM74.4948 162.554H77.7318C80.8778 162.554 82.4508 161.41 82.4508 159.122C82.4508 158.004 82.0608 157.211 81.2808 156.743C80.5008 156.249 79.3178 156.002 77.7318 156.002H74.4948V162.554ZM97.0551 167V141.572H105.791C107.195 141.572 108.508 141.715 109.73 142.001C110.952 142.261 112.018 142.716 112.928 143.366C113.838 143.99 114.553 144.835 115.073 145.901C115.619 146.941 115.892 148.228 115.892 149.762C115.892 151.244 115.619 152.531 115.073 153.623C114.553 154.715 113.838 155.612 112.928 156.314C112.018 157.016 110.965 157.536 109.769 157.874C108.573 158.212 107.299 158.381 105.947 158.381H102.788V167H97.0551ZM102.788 153.818H105.596C108.716 153.818 110.276 152.466 110.276 149.762C110.276 148.436 109.86 147.5 109.028 146.954C108.196 146.408 107 146.135 105.44 146.135H102.788V153.818ZM128.992 154.13L128.368 156.47H133.789L133.204 154.13C132.84 152.856 132.489 151.504 132.151 150.074C131.813 148.644 131.475 147.266 131.137 145.94H130.981C130.669 147.292 130.344 148.683 130.006 150.113C129.694 151.517 129.356 152.856 128.992 154.13ZM119.788 167L127.744 141.572H134.647L142.603 167H136.519L134.959 160.955H127.198L125.638 167H119.788ZM160.289 167.468C158.677 167.468 157.156 167.195 155.726 166.649C154.296 166.077 153.035 165.245 151.943 164.153C150.877 163.061 150.032 161.709 149.408 160.097C148.784 158.459 148.472 156.574 148.472 154.442C148.472 152.336 148.797 150.464 149.447 148.826C150.097 147.162 150.968 145.758 152.06 144.614C153.152 143.47 154.426 142.599 155.882 142.001C157.338 141.403 158.872 141.104 160.484 141.104C162.122 141.104 163.591 141.442 164.891 142.118C166.191 142.768 167.27 143.535 168.128 144.419L165.086 148.085C164.436 147.487 163.747 147.006 163.019 146.642C162.317 146.252 161.511 146.057 160.601 146.057C159.743 146.057 158.924 146.252 158.144 146.642C157.39 147.006 156.727 147.539 156.155 148.241C155.609 148.943 155.167 149.801 154.829 150.815C154.517 151.829 154.361 152.973 154.361 154.247C154.361 156.873 154.92 158.914 156.038 160.37C157.156 161.8 158.651 162.515 160.523 162.515C161.563 162.515 162.486 162.294 163.292 161.852C164.124 161.384 164.852 160.812 165.476 160.136L168.518 163.724C166.386 166.22 163.643 167.468 160.289 167.468ZM177.06 167V141.572H182.793V151.985H182.949L190.515 141.572H196.833L189.15 151.712L198.237 167H191.958L185.757 156.275L182.793 160.175V167H177.06Z" fill="#424242"/>
<path d="M60.903 109.477C61.7783 109.477 62.4517 109.881 62.923 110.689C63.4617 111.497 63.731 112.608 63.731 114.022C63.731 116.715 63.0913 118.803 61.812 120.284C58.7147 123.853 55.5163 126.782 52.217 129.071C48.985 131.36 45.2817 132.505 41.107 132.505C37.673 132.505 35.0807 131.529 33.33 129.576C31.5793 127.556 30.704 124.661 30.704 120.89C30.704 119.005 31.1753 115.638 32.118 110.79C32.9933 106.548 33.431 103.619 33.431 102.003C33.431 100.926 33.0607 100.387 32.32 100.387C31.4447 100.387 30.199 101.532 28.583 103.821C26.967 106.043 25.351 109.006 23.735 112.709C22.119 116.412 20.806 120.318 19.796 124.425C18.5167 129.812 15.352 132.505 10.302 132.505C8.282 132.505 6.93533 131.798 6.262 130.384C5.656 128.903 5.353 126.277 5.353 122.506C5.353 120.351 5.38667 118.634 5.454 117.355L5.555 109.275C5.555 98.9057 6.59867 88.0987 8.686 76.854C10.8407 65.6093 13.9717 56.1827 18.079 48.574C22.2537 40.898 27.2363 37.06 33.027 37.06C36.1243 37.06 38.6157 38.4067 40.501 41.1C42.4537 43.726 43.43 47.16 43.43 51.402C43.43 58.2027 41.4437 65.2727 37.471 72.612C33.4983 79.884 27.0343 88.4017 18.079 98.165C17.877 101.666 17.776 105.269 17.776 108.972C19.998 103.249 22.4557 98.6027 25.149 95.034C27.9097 91.398 30.603 88.8057 33.229 87.257C35.9223 85.7083 38.38 84.934 40.602 84.934C44.9787 84.934 47.167 87.1223 47.167 91.499C47.167 94.125 46.4263 98.872 44.945 105.74C43.6657 111.598 43.026 115.47 43.026 117.355C43.026 120.048 44.0023 121.395 45.955 121.395C47.3017 121.395 48.884 120.587 50.702 118.971C52.5873 117.288 55.0787 114.594 58.176 110.891C58.984 109.948 59.893 109.477 60.903 109.477ZM30.906 47.059C29.694 47.059 28.3473 48.8097 26.866 52.311C25.3847 55.745 23.937 60.4247 22.523 66.35C21.1763 72.208 20.0653 78.6047 19.19 85.54C23.3647 80.6247 26.7987 75.2717 29.492 69.481C32.2527 63.6903 33.633 58.4383 33.633 53.725C33.633 51.5703 33.3973 49.9207 32.926 48.776C32.4547 47.6313 31.7813 47.059 30.906 47.059ZM100.591 109.477C101.467 109.477 102.14 109.881 102.611 110.689C103.15 111.497 103.419 112.608 103.419 114.022C103.419 116.715 102.78 118.803 101.5 120.284C99.0089 123.314 95.4739 126.108 90.8953 128.667C86.3839 131.226 81.5359 132.505 76.3513 132.505C69.2813 132.505 63.7936 130.586 59.8883 126.748C55.9829 122.91 54.0303 117.658 54.0303 110.992C54.0303 106.346 55.0066 102.037 56.9593 98.064C58.9119 94.024 61.6053 90.8257 65.0393 88.469C68.5406 86.1123 72.4796 84.934 76.8563 84.934C80.7616 84.934 83.8926 86.1123 86.2493 88.469C88.6059 90.7583 89.7843 93.8893 89.7843 97.862C89.7843 102.508 88.1009 106.514 84.7343 109.881C81.4349 113.18 75.8126 115.806 67.8673 117.759C69.5506 120.856 72.7489 122.405 77.4623 122.405C80.4923 122.405 83.9263 121.361 87.7643 119.274C91.6696 117.119 95.0363 114.325 97.8643 110.891C98.6723 109.948 99.5813 109.477 100.591 109.477ZM75.1393 94.832C72.6479 94.832 70.5269 96.2797 68.7763 99.175C67.0929 102.07 66.2513 105.572 66.2513 109.679V109.881C70.2239 108.938 73.3549 107.524 75.6443 105.639C77.9336 103.754 79.0783 101.565 79.0783 99.074C79.0783 97.7947 78.7079 96.7847 77.9673 96.044C77.2939 95.236 76.3513 94.832 75.1393 94.832ZM133.475 109.477C134.35 109.477 135.023 109.881 135.495 110.689C136.033 111.497 136.303 112.608 136.303 114.022C136.303 116.715 135.663 118.803 134.384 120.284C131.488 123.853 128.324 126.782 124.89 129.071C121.523 131.36 117.685 132.505 113.376 132.505C107.45 132.505 103.04 129.812 100.145 124.425C97.3167 119.038 95.9027 112.069 95.9027 103.518C95.9027 95.3033 96.9463 85.944 99.0337 75.44C101.188 64.936 104.319 55.9133 108.427 48.372C112.601 40.8307 117.55 37.06 123.274 37.06C126.506 37.06 129.031 38.575 130.849 41.605C132.734 44.5677 133.677 48.8433 133.677 54.432C133.677 62.4447 131.455 71.7367 127.011 82.308C122.567 92.8793 116.54 103.35 108.932 113.719C109.403 116.48 110.177 118.466 111.255 119.678C112.332 120.823 113.746 121.395 115.497 121.395C118.257 121.395 120.681 120.621 122.769 119.072C124.856 117.456 127.516 114.729 130.748 110.891C131.556 109.948 132.465 109.477 133.475 109.477ZM121.052 47.059C119.503 47.059 117.752 49.8533 115.8 55.442C113.847 61.0307 112.13 67.966 110.649 76.248C109.167 84.53 108.359 92.4753 108.225 100.084C113.005 92.206 116.81 84.328 119.638 76.45C122.466 68.5047 123.88 61.2663 123.88 54.735C123.88 49.6177 122.937 47.059 121.052 47.059ZM166.418 109.477C167.293 109.477 167.967 109.881 168.438 110.689C168.977 111.497 169.246 112.608 169.246 114.022C169.246 116.715 168.606 118.803 167.327 120.284C164.432 123.853 161.267 126.782 157.833 129.071C154.466 131.36 150.628 132.505 146.319 132.505C140.394 132.505 135.983 129.812 133.088 124.425C130.26 119.038 128.846 112.069 128.846 103.518C128.846 95.3033 129.89 85.944 131.977 75.44C134.132 64.936 137.263 55.9133 141.37 48.372C145.545 40.8307 150.494 37.06 156.217 37.06C159.449 37.06 161.974 38.575 163.792 41.605C165.677 44.5677 166.62 48.8433 166.62 54.432C166.62 62.4447 164.398 71.7367 159.954 82.308C155.51 92.8793 149.484 103.35 141.875 113.719C142.346 116.48 143.121 118.466 144.198 119.678C145.275 120.823 146.689 121.395 148.44 121.395C151.201 121.395 153.625 120.621 155.712 119.072C157.799 117.456 160.459 114.729 163.691 110.891C164.499 109.948 165.408 109.477 166.418 109.477ZM153.995 47.059C152.446 47.059 150.696 49.8533 148.743 55.442C146.79 61.0307 145.073 67.966 143.592 76.248C142.111 84.53 141.303 92.4753 141.168 100.084C145.949 92.206 149.753 84.328 152.581 76.45C155.409 68.5047 156.823 61.2663 156.823 54.735C156.823 49.6177 155.88 47.059 153.995 47.059ZM178.151 132.505C174.179 132.505 170.778 131.529 167.95 129.576C165.19 127.556 163.102 124.93 161.688 121.698C160.274 118.466 159.567 114.998 159.567 111.295C159.567 106.178 160.51 101.633 162.395 97.66C164.348 93.62 166.974 90.489 170.273 88.267C173.573 85.9777 177.276 84.833 181.383 84.833C185.356 84.833 188.756 85.843 191.584 87.863C194.412 89.8157 196.533 92.408 197.947 95.64C199.361 98.872 200.068 102.34 200.068 106.043C200.068 111.16 199.092 115.739 197.139 119.779C195.187 123.752 192.527 126.883 189.16 129.172C185.861 131.394 182.191 132.505 178.151 132.505ZM179.262 121.597C181.552 121.597 183.471 120.351 185.019 117.86C186.635 115.369 187.443 111.733 187.443 106.952C187.443 103.249 186.77 100.454 185.423 98.569C184.077 96.6837 182.461 95.741 180.575 95.741C178.151 95.741 176.131 96.9867 174.515 99.478C172.967 101.902 172.192 105.538 172.192 110.386C172.192 114.224 172.866 117.052 174.212 118.87C175.559 120.688 177.242 121.597 179.262 121.597Z" fill="#FFB820" fill-opacity="0.7"/>
</svg>
